REM DIRINDEX 1\8,1\2\11,1\3\12,1\3\14,1\5\15,1\5\16,1\6\17,1\6\18,1\4\19,1\4\20,1\4\21,1\4\22,1\7\23,1\7\24,1\7\25,1\2\9\26,1\2\9\27,1\2\10\28,1\2\10\29,1\2\10\30,1\2\10\31,1\2\10\32,1\3\13\33,1\3\13\34,1\3\13\35
REM DIRNAME folder01,folder02,folder03,folder04,folder05,folder06,folder07,folder08,folder09,folder10,folder11,folder12,folder13,folder14,folder15,folder16,folder17,folder18,folder19,folder20,folder21,folder22,folder23,folder24,folder25,folder26,folder27,folder28,folder29,folder30,folder31,folder32,folder33,folder34,folder35
TITLE ""
FILE "96 096_UNIT4_SET1.mp3" MP3
  TRACK 01 AUDIO
    TITLE "14:cjc123_8137"
    INDEX 01 00:00:00
  TRACK 02 AUDIO
    TITLE "0:"
    INDEX 01 00:02:47
  TRACK 03 AUDIO
    TITLE "33:cjc123_8138"
    INDEX 01 00:03:25
  TRACK 04 AUDIO
    TITLE "0:"
    INDEX 01 00:04:27
  TRACK 05 AUDIO
    TITLE "34:cjc123_8139"
    INDEX 01 00:04:50
  TRACK 06 AUDIO
    TITLE "0:"
    INDEX 01 00:05:46
  TRACK 07 AUDIO
    TITLE "35:cjc123_8140"
    INDEX 01 00:06:28
  TRACK 08 AUDIO
    TITLE "0:"
    INDEX 01 00:10:00
  TRACK 09 AUDIO
    TITLE "33:cjc123_8141"
    INDEX 01 00:10:49
  TRACK 10 AUDIO
    TITLE "0:"
    INDEX 01 00:11:72
  TRACK 11 AUDIO
    TITLE "34:cjc123_8142"
    INDEX 01 00:12:16
  TRACK 12 AUDIO
    TITLE "0:"
    INDEX 01 00:13:24
  TRACK 13 AUDIO
    TITLE "35:cjc123_8143"
    INDEX 01 00:14:02
  TRACK 14 AUDIO
    TITLE "0:"
    INDEX 01 00:17:08
  TRACK 15 AUDIO
    TITLE "33:cjc123_8144"
    INDEX 01 00:17:67
  TRACK 16 AUDIO
    TITLE "0:"
    INDEX 01 00:19:07
  TRACK 17 AUDIO
    TITLE "34:cjc123_8145"
    INDEX 01 00:19:34
  TRACK 18 AUDIO
    TITLE "0:"
    INDEX 01 00:20:55
  TRACK 19 AUDIO
    TITLE "35:cjc123_8146"
    INDEX 01 00:21:35
  TRACK 20 AUDIO
    TITLE "0:"
    INDEX 01 00:26:03
  TRACK 21 AUDIO
    TITLE "33:cjc123_8147"
    INDEX 01 00:26:56
  TRACK 22 AUDIO
    TITLE "0:"
    INDEX 01 00:28:00
  TRACK 23 AUDIO
    TITLE "34:cjc123_8148"
    INDEX 01 00:28:23
  TRACK 24 AUDIO
    TITLE "0:"
    INDEX 01 00:29:38
  TRACK 25 AUDIO
    TITLE "35:cjc123_8149"
    INDEX 01 00:30:24
  TRACK 26 AUDIO
    TITLE "0:"
    INDEX 01 00:35:29
  TRACK 27 AUDIO
    TITLE "33:cjc123_8150"
    INDEX 01 00:36:15
  TRACK 28 AUDIO
    TITLE "0:"
    INDEX 01 00:37:12
  TRACK 29 AUDIO
    TITLE "34:cjc123_8151"
    INDEX 01 00:37:34
  TRACK 30 AUDIO
    TITLE "0:"
    INDEX 01 00:38:33
  TRACK 31 AUDIO
    TITLE "35:cjc123_8152"
    INDEX 01 00:39:07
  TRACK 32 AUDIO
    TITLE "0:"
    INDEX 01 00:42:51
  TRACK 33 AUDIO
    TITLE "33:cjc123_8153"
    INDEX 01 00:43:29
  TRACK 34 AUDIO
    TITLE "0:"
    INDEX 01 00:44:20
  TRACK 35 AUDIO
    TITLE "34:cjc123_8154"
    INDEX 01 00:44:48
  TRACK 36 AUDIO
    TITLE "0:"
    INDEX 01 00:45:41
  TRACK 37 AUDIO
    TITLE "35:cjc123_8155"
    INDEX 01 00:46:15
  TRACK 38 AUDIO
    TITLE "0:"
    INDEX 01 00:49:41
  TRACK 39 AUDIO
    TITLE "33:cjc123_8156"
    INDEX 01 00:50:23
  TRACK 40 AUDIO
    TITLE "0:"
    INDEX 01 00:51:22
  TRACK 41 AUDIO
    TITLE "34:cjc123_8157"
    INDEX 01 00:51:36
  TRACK 42 AUDIO
    TITLE "0:"
    INDEX 01 00:52:28
  TRACK 43 AUDIO
    TITLE "35:cjc123_8158"
    INDEX 01 00:53:08
  TRACK 44 AUDIO
    TITLE "0:"
    INDEX 01 00:58:44
  TRACK 45 AUDIO
    TITLE "33:cjc123_8159"
    INDEX 01 00:59:22
  TRACK 46 AUDIO
    TITLE "0:"
    INDEX 01 01:00:31
  TRACK 47 AUDIO
    TITLE "34:cjc123_8160"
    INDEX 01 01:00:49
  TRACK 48 AUDIO
    TITLE "0:"
    INDEX 01 01:01:62
  TRACK 49 AUDIO
    TITLE "35:cjc123_8161"
    INDEX 01 01:02:40
  TRACK 50 AUDIO
    TITLE "0:"
    INDEX 01 01:07:57
  TRACK 51 AUDIO
    TITLE "33:cjc123_8162"
    INDEX 01 01:08:33
  TRACK 52 AUDIO
    TITLE "0:"
    INDEX 01 01:09:34
  TRACK 53 AUDIO
    TITLE "34:cjc123_8163"
    INDEX 01 01:09:56
  TRACK 54 AUDIO
    TITLE "0:"
    INDEX 01 01:10:57
  TRACK 55 AUDIO
    TITLE "35:cjc123_8164"
    INDEX 01 01:11:33
  TRACK 56 AUDIO
    TITLE "0:"
    INDEX 01 01:15:17
  TRACK 57 AUDIO
    TITLE "33:cjc123_8165"
    INDEX 01 01:15:70
  TRACK 58 AUDIO
    TITLE "0:"
    INDEX 01 01:16:69
  TRACK 59 AUDIO
    TITLE "34:cjc123_8166"
    INDEX 01 01:17:16
  TRACK 60 AUDIO
    TITLE "0:"
    INDEX 01 01:18:13
  TRACK 61 AUDIO
    TITLE "35:cjc123_8167"
    INDEX 01 01:18:56
  TRACK 62 AUDIO
    TITLE "0:"
    INDEX 01 01:23:07
  TRACK 63 AUDIO
    TITLE "33:cjc123_8168"
    INDEX 01 01:23:65
  TRACK 64 AUDIO
    TITLE "0:"
    INDEX 01 01:24:71
  TRACK 65 AUDIO
    TITLE "34:cjc123_8169"
    INDEX 01 01:25:21
  TRACK 66 AUDIO
    TITLE "0:"
    INDEX 01 01:26:23
  TRACK 67 AUDIO
    TITLE "35:cjc123_8170"
    INDEX 01 01:26:74
  TRACK 68 AUDIO
    TITLE "0:"
    INDEX 01 01:32:27
  TRACK 69 AUDIO
    TITLE "33:cjc123_8171"
    INDEX 01 01:33:15
  TRACK 70 AUDIO
    TITLE "0:"
    INDEX 01 01:34:24
  TRACK 71 AUDIO
    TITLE "34:cjc123_8172"
    INDEX 01 01:34:40
  TRACK 72 AUDIO
    TITLE "0:"
    INDEX 01 01:35:59
  TRACK 73 AUDIO
    TITLE "35:cjc123_8173"
    INDEX 01 01:36:33
  TRACK 74 AUDIO
    TITLE "0:"
    INDEX 01 01:39:57
  TRACK 75 AUDIO
    TITLE "33:cjc123_8174"
    INDEX 01 01:40:35
  TRACK 76 AUDIO
    TITLE "0:"
    INDEX 01 01:41:46
  TRACK 77 AUDIO
    TITLE "34:cjc123_8175"
    INDEX 01 01:41:65
  TRACK 78 AUDIO
    TITLE "0:"
    INDEX 01 01:42:63
  TRACK 79 AUDIO
    TITLE "35:cjc123_8176"
    INDEX 01 01:43:45
  TRACK 80 AUDIO
    TITLE "0:"
    INDEX 01 01:49:08
  TRACK 81 AUDIO
    TITLE "33:cjc123_8177"
    INDEX 01 01:49:55
  TRACK 82 AUDIO
    TITLE "0:"
    INDEX 01 01:50:66
  TRACK 83 AUDIO
    TITLE "34:cjc123_8178"
    INDEX 01 01:51:17
  TRACK 84 AUDIO
    TITLE "0:"
    INDEX 01 01:52:16
  TRACK 85 AUDIO
    TITLE "35:cjc123_8179"
    INDEX 01 01:52:65
  TRACK 86 AUDIO
    TITLE "0:"
    INDEX 01 01:57:62
  TRACK 87 AUDIO
    TITLE "33:cjc123_8180"
    INDEX 01 01:58:40
  TRACK 88 AUDIO
    TITLE "0:"
    INDEX 01 01:59:36
  TRACK 89 AUDIO
    TITLE "34:cjc123_8181"
    INDEX 01 01:59:63
  TRACK 90 AUDIO
    TITLE "0:"
    INDEX 01 02:00:53
  TRACK 91 AUDIO
    TITLE "35:cjc123_8182"
    INDEX 01 02:01:27
  TRACK 92 AUDIO
    TITLE "0:"
    INDEX 01 02:04:59
